<svg xmlns="http://www.w3.org/2000/svg" viewBox="0 0 35.102 32.098">
  <defs>
    <style>
      .cls-1 {
        fill: #17afbc;
      }
    </style>
  </defs>
  <path id="餐碟" class="cls-1" d="M119.118,171.8H116.96a.34.34,0,0,1-.339-.339l.181-30.614a.342.342,0,0,1,.339-.339h1.221a.337.337,0,0,1,.339.33l.158,6.419a14.808,14.808,0,0,1,11.8-5.836,14.718,14.718,0,0,1,8.528,2.7,8.059,8.059,0,0,1,.991-2.271,3.749,3.749,0,0,1,6.777,0,9.95,9.95,0,0,1,0,9.971,5.051,5.051,0,0,1-1.66,1.66l.67,15.246v.014a2.366,2.366,0,0,1-4.732,0v-.018l.1-2.162a14.919,14.919,0,0,1-2.873,2.321.338.338,0,0,1-.357-.575,14.276,14.276,0,0,0,2.977-2.466.338.338,0,0,1,.294-.109l.593-12.178a5.38,5.38,0,0,1-2.2-2.456.338.338,0,1,1,.606-.3c.778,1.574,1.941,2.479,3.185,2.479a3.474,3.474,0,0,0,2.818-1.832,9.267,9.267,0,0,0,0-9.229,3.084,3.084,0,0,0-5.637,0,8.607,8.607,0,0,0-1.231,4.614q0,.387.027.774c.018.262.05.529.09.783s.09.5.149.746.122.457.195.674a.34.34,0,1,1-.647.213c-.077-.235-.149-.48-.208-.728s-.118-.534-.158-.8-.077-.556-.1-.837-.032-.547-.032-.823a10.707,10.707,0,0,1,.185-2,.4.4,0,0,1-.045-.027,14.16,14.16,0,0,0-19.747,3.1.341.341,0,0,1-.348.131l.412,16.716a.342.342,0,0,1,.1.086,14.062,14.062,0,0,0,11.269,5.587,14.252,14.252,0,0,0,3.56-.452,14.47,14.47,0,0,0,1.932-.651.339.339,0,0,1,.262.624,14.421,14.421,0,0,1-2.027.683,14.958,14.958,0,0,1-3.728.475,14.654,14.654,0,0,1-6.7-1.592,14.947,14.947,0,0,1-4.642-3.673l.14,5.628a.345.345,0,0,1-.1.244A.339.339,0,0,1,119.118,171.8Zm-1.819-.679h1.47l-.737-29.935h-.552Zm24.61-2.38a1.683,1.683,0,0,0,3.366,0l-.656-14.961a3.248,3.248,0,0,1-1.059.176,3.37,3.37,0,0,1-.923-.131ZM115.639,171.8h-2.108a.34.34,0,0,1-.339-.353l.724-21.281a.34.34,0,1,1,.679.027l-.71,20.928H115.3l.127-29.935h-.565l-.163,4.994a.339.339,0,1,1-.679-.018l.176-5.32a.34.34,0,0,1,.339-.33h1.235a.34.34,0,0,1,.339.339l-.127,30.614A.355.355,0,0,1,115.639,171.8Zm14.834-6.424a8.966,8.966,0,1,1,8.966-8.966A8.976,8.976,0,0,1,130.473,165.373Zm0-17.254a8.288,8.288,0,1,0,8.288,8.288,8.3,8.3,0,0,0-8.288-8.288Zm10.821,1.669a.339.339,0,0,1-.335-.285c-.851-5.108,1.4-7.143,1.493-7.229a.34.34,0,0,1,.448.511,4.243,4.243,0,0,0-.932,1.511,9.513,9.513,0,0,0-.344,5.1.336.336,0,0,1-.28.389A.17.17,0,0,1,141.295,149.788Zm-27.026-.52h-.014a.342.342,0,0,1-.33-.348l.05-1.47a.339.339,0,1,1,.679.018l-.05,1.47A.336.336,0,0,1,114.269,149.268Z" transform="translate(-113.192 -139.7)"/>
</svg>
