<svg xmlns="http://www.w3.org/2000/svg" viewBox="0 0 26.785 33.336">
  <defs>
    <style>
      .cls-1 {
        fill: #17afbc;
      }
    </style>
  </defs>
  <path id="力量训练" class="cls-1" d="M142.628,148.53c-1.019-9.39,4.835-18.555,5.142-19.34s4.408-4.339,8.2-2.97,3.518,4.2,2.448,5.5c-.954,2.655-4.762,1.839-5.716,1.226s-1.36.544-1.36.544a31.878,31.878,0,0,1,.734,10.452s-2.8,1.779-3.082,3.557c0,0,.22-.665,2.957-2.448,3.877-2.521,7.758,1.161,7.758,1.161,1.019-1.36,3.752-.475,3.752-.475l.035.065c.026-.242.039-.389.039-.389h4.352a.738.738,0,0,1,.652,1.084l-6.579,12.355a.737.737,0,0,1-.652.389h-3.92c.233-.155.449-.337.665-.514a4.73,4.73,0,0,1-2.374-1.045,3.9,3.9,0,0,0,1.714-2.564,4.874,4.874,0,0,1-2.439,1.507c-7.827.341-8.5-3.54-8.5-3.54s-.613.816-3.268-.41S142.628,148.53,142.628,148.53Z" transform="translate(-141.835 -125.909)"/>
</svg>
