<svg xmlns="http://www.w3.org/2000/svg" viewBox="0 0 31.897 31.897">
  <defs>
    <style>
      .cls-1 {
        fill: #17afbc;
      }
    </style>
  </defs>
  <path id="_017多联靶向抗瘤免疫细胞" data-name="017多联靶向抗瘤免疫细胞" class="cls-1" d="M104.7,112.744l4.743,4.743a.962.962,0,0,1,1.306.137,1.021,1.021,0,1,1-1.444,1.444.954.954,0,0,1-.137-1.237l-4.743-4.743a1.036,1.036,0,0,1-1.237-.137,1.021,1.021,0,0,1,1.444-1.444A1.021,1.021,0,0,1,104.7,112.744Zm2.269-.962,3.437,3.437a1.04,1.04,0,0,1,1.306.137,1.021,1.021,0,1,1-1.444,1.444,1.04,1.04,0,0,1-.137-1.306l-3.506-3.506a1.04,1.04,0,0,1-1.306-.137,1.021,1.021,0,0,1,1.444-1.444A1.081,1.081,0,0,1,106.969,111.781Zm2.475-.069,1.031,1.031a.962.962,0,0,1,1.306.137,1.021,1.021,0,0,1-1.444,1.444.947.947,0,0,1-.137-1.237l-1.031-1.031a1.036,1.036,0,0,1-1.237-.137,1.021,1.021,0,1,1,1.444-1.444A1.021,1.021,0,0,1,109.444,111.713Zm2.544-2.612,1.031,1.031a1.04,1.04,0,0,1,1.306.137,1.021,1.021,0,1,1-1.444,1.444,1.04,1.04,0,0,1-.137-1.306l-1.031-.962a1.04,1.04,0,0,1-1.306-.137,1.021,1.021,0,0,1,1.444-1.444A.954.954,0,0,1,111.988,109.1Zm.069-2.475,3.437,3.437a1.04,1.04,0,0,1,1.306.137,1.021,1.021,0,1,1-1.444,1.444,1.04,1.04,0,0,1-.137-1.306l-3.437-3.437a1.04,1.04,0,0,1-1.306-.137,1.021,1.021,0,0,1,1.444-1.444A1.04,1.04,0,0,1,112.056,106.626Zm5.775-3.3,1.031,1.031a1.049,1.049,0,0,1,1.306.137,1.021,1.021,0,1,1-1.444,1.444,1.04,1.04,0,0,1-.137-1.306l-1.031-1.031a1.04,1.04,0,0,1-1.306-.137,1.021,1.021,0,1,1,1.444-1.444A1.275,1.275,0,0,1,117.831,103.326Zm-4.812,1.1,4.743,4.743a.962.962,0,0,1,1.306.137,1.021,1.021,0,1,1-1.444,1.444.954.954,0,0,1-.137-1.237l-4.743-4.743a1.036,1.036,0,0,1-1.237-.137,1.021,1.021,0,0,1,1.444-1.444A1.021,1.021,0,0,1,113.019,104.426Zm-9.212,10.518,3.506,3.506a1.154,1.154,0,0,1,1.237.137,1.021,1.021,0,1,1-1.444,1.444,1.139,1.139,0,0,1-.137-1.375l-3.437-3.437a1.058,1.058,0,0,1-1.375-.137,1.021,1.021,0,0,1,1.444-1.444A1.156,1.156,0,0,1,103.807,114.944Zm-1.787,1.237a1,1,0,0,1,1.444,0,1.04,1.04,0,0,1,.137,1.306l1.031,1.031a1.04,1.04,0,0,1,1.306.137,1.021,1.021,0,0,1-1.444,1.444,1.04,1.04,0,0,1-.137-1.306l-1.031-1.031a1.04,1.04,0,0,1-1.306-.137A1,1,0,0,1,102.02,116.181Zm-.069,2.544a1.021,1.021,0,1,1,0,1.444A1,1,0,0,1,101.951,118.725Zm8.387-8.387a1.021,1.021,0,1,1,0,1.444A1,1,0,0,1,110.338,110.338Zm4.881-6.874,3.437,3.437a1.058,1.058,0,0,1,1.375.137,1.021,1.021,0,0,1-1.444,1.444.947.947,0,0,1-.137-1.237l-3.506-3.506a1.154,1.154,0,0,1-1.237-.137,1.021,1.021,0,1,1,1.444-1.444,1.034,1.034,0,0,1,.069,1.306Zm3.506-1.444a1.021,1.021,0,1,1,0,1.444A1,1,0,0,1,118.725,102.02Zm-9.418,25.092a16.2,16.2,0,0,1-14.093-14.093h2.2a13.858,13.858,0,0,0,11.893,11.961Zm17.8-14.093a16.067,16.067,0,0,1-14.093,14.093V124.98a13.858,13.858,0,0,0,11.893-11.961Zm-14.093-17.8a16.067,16.067,0,0,1,14.093,14.093h-2.2a13.783,13.783,0,0,0-11.893-11.755Zm-17.8,14.093a16.2,16.2,0,0,1,14.093-14.093v2.337a13.782,13.782,0,0,0-11.824,11.755Z" transform="translate(-95.214 -95.214)"/>
</svg>
