<svg xmlns="http://www.w3.org/2000/svg" viewBox="0 0 31.733 31.733">
  <defs>
    <style>
      .cls-1 {
        fill: #17afbc;
      }
    </style>
  </defs>
  <g id="蛋白质" transform="translate(-64 -64)">
    <path id="路径_500" data-name="路径 500" class="cls-1" d="M79.867,95.733A15.867,15.867,0,1,1,95.733,79.867,15.84,15.84,0,0,1,79.867,95.733Zm0-1.133A14.733,14.733,0,1,0,65.133,79.867,14.7,14.7,0,0,0,79.867,94.6Z"/>
    <path id="路径_501" data-name="路径 501" class="cls-1" d="M155.6,161.425a3.465,3.465,0,0,0-.227-.34c-.227.283-.34.51-.4.567a15.694,15.694,0,0,1-.963,1.3,6.991,6.991,0,0,0,2.1-.68A5.6,5.6,0,0,1,155.6,161.425Zm-3.513.34c.283-.4.623-.793,1.02-1.417.057-.113.793-1.133,1.077-1.587a22.725,22.725,0,0,1-.907-2.493c0-.057,0-.057-.057-.113-.057-.113-.057-.227-.113-.34-.4.17-1.19.51-1.36.567-.567.227-.963.4-1.36.567-.283.113-.567.227-.793.34a5.244,5.244,0,0,0-2.493,2.04,5.724,5.724,0,0,0,3.343,3.287l.68.17A5.687,5.687,0,0,0,152.086,161.765Zm-3.4-6.46a5.72,5.72,0,0,0,.85-.4c.4-.17.85-.34,1.417-.567.113-.057,1.077-.453,1.417-.567a8.886,8.886,0,0,0-1.077-1.983,1.714,1.714,0,0,0-1.19-.737,2.966,2.966,0,0,0,.567,1.53A1.128,1.128,0,1,1,148.913,154a5.047,5.047,0,0,1-.963-2.1c-1.3,1.02-1.813,2.777-1.53,4.93a6.142,6.142,0,0,1,2.267-1.53Zm8.727,8.84a8.43,8.43,0,0,1-5.78,1.02,3.118,3.118,0,0,1-2.153.283,5.963,5.963,0,0,1-4.7-4.25,5.336,5.336,0,0,1-.057-1.643c-1.36-3.74-.793-8.33,2.777-10.143.17-.057.283-.17.453-.227a8.1,8.1,0,0,1,2.153-3.74,6.137,6.137,0,0,1,9.18-.113c2.437,2.38,2.607,4.7.68,6.687a15.07,15.07,0,0,1-4.76,2.89l.17.51c0,.057,0,.057.057.113.113.4.283.737.4,1.077,1.983-2.323,3.853-3.457,6.347-3.457,7.48,0,9.973,8.727,4.023,12.58-2.493,1.587-4.647,1.7-6.63.453A6.05,6.05,0,0,1,157.413,164.145Zm-4.42-13.827a10.443,10.443,0,0,1,1.473,2.55,12.348,12.348,0,0,0,3.91-2.38c1.02-1.02.963-1.983-.623-3.457a3.915,3.915,0,0,0-6.007.057,6.019,6.019,0,0,0-1.19,1.757A4.031,4.031,0,0,1,152.993,150.318Zm4.08,9.18a4.927,4.927,0,0,1,.453.793,4.987,4.987,0,0,1,.34.567A10.319,10.319,0,0,0,159,159.441c1.53-2.153,3.967-2.55,5.553-1.133,1.643,1.417,1.473,3.853-.567,5.27a1.14,1.14,0,1,1-1.3-1.87c.85-.623.907-1.247.4-1.7-.567-.51-1.417-.34-2.21.737a21.437,21.437,0,0,1-1.643,2.04c1.927,2.493,3.343,2.777,5.78,1.19,4.08-2.607,2.437-8.387-2.777-8.387-1.927,0-3.457,1.077-5.327,3.513A.753.753,0,0,0,157.073,159.5Z" transform="translate(-77.206 -76.515)"/>
    <path id="路径_502" data-name="路径 502" class="cls-1" d="M148.264,155.788l.17.227-.227.17a6,6,0,0,1-2.21.737l-.68.057.4-.51c.283-.34.567-.737.963-1.3a.436.436,0,0,0,.113-.17c.113-.17.113-.17.283-.4l.227-.34.227.4a1.072,1.072,0,0,0,.227.34C147.924,155.278,148.094,155.562,148.264,155.788Zm-.963-.453c-.113.113-.113.113-.113.227a8.291,8.291,0,0,1-.51.737,7.569,7.569,0,0,0,1.02-.4c-.17-.227-.283-.4-.4-.567Zm-4.08,1.36-.113.113h-.113l-.68-.17a6.014,6.014,0,0,1-3.513-3.4l-.057-.113.057-.113a5.423,5.423,0,0,1,2.607-2.153c.227-.113.51-.227.793-.34.4-.17.793-.34,1.36-.567.057,0,.68-.283.737-.283.283-.113.453-.17.623-.227l.283-.113.113.283c.057.113.057.227.113.34v.113c.4,1.133.68,1.87.907,2.437l.057.17-.113.113c-.113.17-.283.4-.453.68a8.416,8.416,0,0,1-.623.85,12.811,12.811,0,0,1-1.077,1.417A7.3,7.3,0,0,1,143.221,156.7Zm.567-1.417a13.593,13.593,0,0,0,1.02-1.417s.453-.623.623-.85.283-.4.4-.567c-.227-.567-.51-1.3-.85-2.323v-.17c-.113.057-.227.057-.34.113-.057,0-.68.283-.737.283-.567.227-.963.4-1.36.567-.283.113-.567.227-.793.34a4.774,4.774,0,0,0-2.267,1.757,5.4,5.4,0,0,0,3.06,3c.17.057.34.057.51.113A6.548,6.548,0,0,0,143.788,155.278Zm-5.327-4.59-.4.34-.057-.51c-.34-2.21.227-4.08,1.643-5.157l.34-.283.113.453a4.888,4.888,0,0,0,.907,1.983.835.835,0,0,0,1.19.17.888.888,0,0,0,.17-1.19,3.225,3.225,0,0,1-.623-1.643v-.34l.34.057a2.241,2.241,0,0,1,1.417.85,8.155,8.155,0,0,1,1.133,2.04l.113.283-.283.113c-.113.057-.34.113-.68.283-.057,0-.68.283-.737.283-.567.227-1.02.4-1.417.567-.283.113-.567.283-.85.4A5.19,5.19,0,0,0,138.461,150.688Zm2.04-1.983a5.721,5.721,0,0,0,.85-.4,1.1,1.1,0,0,1-.793-.51,5.188,5.188,0,0,1-.907-1.757,4.934,4.934,0,0,0-1.133,3.853A8.364,8.364,0,0,1,140.5,148.705Zm3-1.247a2.761,2.761,0,0,0,.4-.17,6.974,6.974,0,0,0-.963-1.643,1.53,1.53,0,0,0-.623-.51,2.156,2.156,0,0,0,.453.963,1.362,1.362,0,0,1,.057,1.643A4.428,4.428,0,0,1,143.5,147.458Zm5.667,10.143.227-.113.17.227a8.294,8.294,0,0,0,2.153,2.1c1.87,1.19,3.91,1.077,6.29-.453,5.723-3.8,3.173-12.127-3.91-12.127-2.323,0-4.137,1.02-6.12,3.343l-.34.4-.17-.453c-.113-.34-.227-.68-.4-1.077v-.113l-.17-.51-.113-.227.227-.113a14.046,14.046,0,0,0,4.647-2.833c1.813-1.87,1.643-4.08-.68-6.29a5.909,5.909,0,0,0-8.783.113,7.533,7.533,0,0,0-2.04,3.627l-.057.113-.113.057a1.7,1.7,0,0,0-.453.227c-3.173,1.587-4.137,5.78-2.663,9.8v.113a3.492,3.492,0,0,0,.057,1.53,5.66,5.66,0,0,0,4.477,4.023,2.993,2.993,0,0,0,1.983-.227l.057-.057h.113A8.967,8.967,0,0,0,149.171,157.6Zm-5.553,1.53a3.467,3.467,0,0,1-2.267.227,6.187,6.187,0,0,1-4.93-4.477,5.393,5.393,0,0,1-.057-1.643c-1.53-4.193-.51-8.67,2.947-10.37l.34-.17a8.631,8.631,0,0,1,2.153-3.74,6.457,6.457,0,0,1,9.577-.113c2.55,2.437,2.777,4.987.68,7.083a15.675,15.675,0,0,1-4.59,2.89.43.43,0,0,0,.113.227l.057.113c.057.227.17.453.227.623,1.983-2.21,3.853-3.173,6.233-3.173,7.65,0,10.427,9.067,4.193,13.09-2.55,1.643-4.873,1.813-6.913.453a8.594,8.594,0,0,1-2.1-1.983A8.55,8.55,0,0,1,143.618,159.132Zm1.077-14.96a4.084,4.084,0,0,0-2.323-1.417l-.4-.057.17-.34a5.755,5.755,0,0,1,1.247-1.813,4.189,4.189,0,0,1,6.4-.057c1.643,1.587,1.813,2.663.623,3.91a13.113,13.113,0,0,1-4.023,2.437l-.283.113v-.283A8.495,8.495,0,0,0,144.694,144.172Zm.453-.34a7.62,7.62,0,0,1,1.36,2.323,11.456,11.456,0,0,0,3.57-2.21c.907-.963.793-1.7-.623-3.06a3.644,3.644,0,0,0-5.61.057,6.1,6.1,0,0,0-1.02,1.36A4.649,4.649,0,0,1,145.148,143.832Zm3.343,9.067-.057-.17.113-.17c1.983-2.607,3.57-3.627,5.553-3.627,5.383,0,7.31,6.12,2.947,8.9-2.607,1.7-4.193,1.36-6.177-1.247l-.17-.17.17-.17a15.277,15.277,0,0,0,1.643-1.983c.85-1.19,1.87-1.473,2.663-.793.68.623.567,1.473-.4,2.153a.857.857,0,0,0,.963,1.417c1.87-1.3,2.1-3.513.567-4.817s-3.74-.907-5.157,1.077a10.32,10.32,0,0,1-1.133,1.417l-.227.283-.227-.34a4.977,4.977,0,0,1-.34-.567,1.072,1.072,0,0,1-.227-.34,4.4,4.4,0,0,1-.227-.4V153.3C148.661,153.182,148.6,153.012,148.491,152.9Zm.737.113c.113.17.113.17.283.453a1.072,1.072,0,0,0,.227.34.43.43,0,0,1,.113.227c.283-.34.567-.68.85-1.077,1.587-2.267,4.193-2.777,6.007-1.19s1.587,4.193-.623,5.723a1.423,1.423,0,1,1-1.643-2.323c.68-.453.737-.907.34-1.247-.453-.4-1.133-.227-1.813.68a13.544,13.544,0,0,1-1.53,1.87c1.757,2.21,3,2.38,5.27.963,3.91-2.55,2.21-7.933-2.607-7.933-1.757,0-3.173.963-4.987,3.287A.43.43,0,0,0,149.228,153.012Z" transform="translate(-69.134 -70.199)"/>
  </g>
</svg>
