<svg xmlns="http://www.w3.org/2000/svg" viewBox="0 0 28.309 27.68">
  <defs>
    <style>
      .cls-1 {
        fill: #17afbc;
      }
    </style>
  </defs>
  <g id="细胞" transform="translate(-126.668 -135.678)">
    <path id="路径_510" data-name="路径 510" class="cls-1" d="M350.62,176.223a10.322,10.322,0,0,1,7.736-.293,6.631,6.631,0,0,1,4.4,3.575c.234.41,1.114,2.168,1.231,2.462,1.055,2.11.879,3.692-.117,6.212a16.57,16.57,0,0,0-.645,1.7c-.527,1.934-2.462,3.634-4.4,4.571-.176.117-.352.176-.645.352a.45.45,0,0,0-.176.117,7.3,7.3,0,0,1-3.282,1c-2.344.176-7.912-2.93-9.377-5.626-1.465-2.755-1.231-8.264.293-10.022A12.917,12.917,0,0,1,350.62,176.223Zm.41,1.114a13.274,13.274,0,0,0-4.63,3.692c-1.172,1.348-1.407,6.388-.117,8.732,1.231,2.286,6.33,5.157,8.264,4.982a6.457,6.457,0,0,0,2.872-.879.45.45,0,0,0,.176-.117,7.821,7.821,0,0,1,.7-.352c1.7-.762,3.4-2.286,3.809-3.809a10.31,10.31,0,0,1,.7-1.875c.938-2.227,1.055-3.516.176-5.216-.176-.352-1-2.051-1.231-2.462a5.547,5.547,0,0,0-3.692-3.048A9.912,9.912,0,0,0,351.031,177.337Z" transform="translate(-209.721 -38.189)"/>
    <path id="路径_511" data-name="路径 511" class="cls-1" d="M504.9,356.1m-4.1,0a4.1,4.1,0,1,0,4.1-4.1A4.1,4.1,0,0,0,500.8,356.1Z" transform="translate(-360.428 -208.398)"/>
    <path id="路径_512" data-name="路径 512" class="cls-1" d="M257.222,587.2l.117.586a5.234,5.234,0,0,0-1.172.352,7.364,7.364,0,0,0-2.579,2.051c-.645.762-.762,3.458-.059,4.747a7.448,7.448,0,0,0,4.571,2.755,4.388,4.388,0,0,0,1.582-.469c.059,0,.059,0,.117-.059a.956.956,0,0,0,.352-.176,3.816,3.816,0,0,0,2.11-2.051,7.053,7.053,0,0,1,.352-1,3.517,3.517,0,0,0,.41-1.875l.586-.059a4.043,4.043,0,0,1-.469,2.169c-.234.645-.293.7-.352.938a4.309,4.309,0,0,1-2.4,2.461,1.956,1.956,0,0,1-.352.176c-.059,0-.059,0-.117.059a3.591,3.591,0,0,1-1.817.528c-1.289.117-4.337-1.582-5.1-3.048-.82-1.465-.645-4.454.117-5.451a6.9,6.9,0,0,1,2.813-2.168A3.153,3.153,0,0,1,257.222,587.2Z" transform="translate(-121.187 -434.983)"/>
    <path id="路径_513" data-name="路径 513" class="cls-1" d="M358.558,689.758m-1.758,0A1.758,1.758,0,1,0,358.558,688,1.758,1.758,0,0,0,356.8,689.758Z" transform="translate(-221.703 -532.091)"/>
    <path id="路径_514" data-name="路径 514" class="cls-1" d="M128.826,135.983a3.7,3.7,0,0,1,2.637-.117,2.324,2.324,0,0,1,1.524,1.231l.41.82a2.368,2.368,0,0,1-.059,2.168,3.794,3.794,0,0,0-.176.586,2.873,2.873,0,0,1-1.524,1.582c-.059,0-.117.059-.234.117-.059,0-.059,0-.059.059a3.044,3.044,0,0,1-1.114.352,4.737,4.737,0,0,1-3.223-1.934,3.938,3.938,0,0,1,.117-3.458A3.863,3.863,0,0,1,128.826,135.983Zm.176.586a4.029,4.029,0,0,0-1.524,1.231,3.82,3.82,0,0,0-.059,2.813,4.337,4.337,0,0,0,2.7,1.582,2.154,2.154,0,0,0,.938-.293c.059,0,.059,0,.059-.059.117-.059.176-.059.234-.117a2.411,2.411,0,0,0,1.231-1.172,4.8,4.8,0,0,1,.234-.645,1.649,1.649,0,0,0,.059-1.641l-.41-.82a1.611,1.611,0,0,0-1.172-.938A2.81,2.81,0,0,0,129,136.569Z" transform="translate(0)"/>
    <path id="路径_515" data-name="路径 515" class="cls-1" d="M205.679,208.879m-.879,0a.879.879,0,1,0,.879-.879A.879.879,0,0,0,204.8,208.879Z" transform="translate(-75.27 -69.673)"/>
  </g>
</svg>
