<svg xmlns="http://www.w3.org/2000/svg" viewBox="0 0 29.215 30.155">
  <defs>
    <style>
      .cls-1 {
        fill: #17afbc;
      }
    </style>
  </defs>
  <g id="干细胞移植" transform="translate(-237.903 -224.788)">
    <path id="路径_516" data-name="路径 516" class="cls-1" d="M369.755,227.931a3.143,3.143,0,1,1,3.143,3.143,3.143,3.143,0,0,1-3.143-3.143Z" transform="translate(-124.823)"/>
    <path id="路径_517" data-name="路径 517" class="cls-1" d="M237.9,442.4a3.466,3.466,0,1,1,3.465,3.466A3.465,3.465,0,0,1,237.9,442.4Z" transform="translate(0 -202.728)"/>
    <path id="路径_518" data-name="路径 518" class="cls-1" d="M572.879,372.131a2.634,2.634,0,1,1,2.634,2.634,2.634,2.634,0,0,1-2.634-2.634Z" transform="translate(-317.119 -136.995)"/>
    <path id="路径_519" data-name="路径 519" class="cls-1" d="M412.733,446.116a3.515,3.515,0,1,1,3.515,3.515,3.515,3.515,0,0,1-3.515-3.515Z" transform="translate(-165.51 -206.202)"/>
    <path id="路径_520" data-name="路径 520" class="cls-1" d="M262.525,607.021a5.023,5.023,0,1,1,5.023,5.023,5.023,5.023,0,0,1-5.023-5.023Z" transform="translate(-23.309 -357.101)"/>
    <path id="路径_521" data-name="路径 521" class="cls-1" d="M653.332,526.916a3.535,3.535,0,1,1,3.535,3.535,3.535,3.535,0,0,1-3.535-3.535Z" transform="translate(-393.283 -282.676)"/>
    <path id="路径_522" data-name="路径 522" class="cls-1" d="M296.974,298.034a.844.844,0,0,1-.707-1.3l5.44-8.39-7.4-.363a.844.844,0,1,1,.082-1.685l7.989.391-2.434-10.837a.844.844,0,0,1,1.646-.37l2.378,10.587,6.305-4.117a.844.844,0,0,1,.922,1.413l-6.008,3.922,11.146,3.5a.844.844,0,0,1-.5,1.61l-12.243-3.839-5.9,9.1A.842.842,0,0,1,296.974,298.034Z" transform="translate(-52.635 -47.364)"/>
  </g>
</svg>
