<svg xmlns="http://www.w3.org/2000/svg" viewBox="0 0 39.616 29.084">
  <defs>
    <style>
      .cls-1 {
        fill: #17afbc;
      }
    </style>
  </defs>
  <g id="餐饮食物饮料" transform="translate(-36.276 -148.718)">
    <path id="路径_497" data-name="路径 497" class="cls-1" d="M466.406,358.9a.619.619,0,0,1-.619-.619,4.339,4.339,0,0,1,4.334-4.334.619.619,0,1,1,0,1.238,3.1,3.1,0,0,0-3.1,3.1A.619.619,0,0,1,466.406,358.9Zm15.478-.754h-1.238a2.22,2.22,0,0,0-.637-1.331,1.786,1.786,0,0,0-.96-.407,2.287,2.287,0,0,0-1.461.381,2.249,2.249,0,0,0-.657,1.356h-1.238a2.954,2.954,0,0,1,1.093-2.291,3.286,3.286,0,0,1,4.036.018A2.949,2.949,0,0,1,481.884,358.146Zm0,0" transform="translate(-411.719 -196.728)"/>
    <path id="路径_498" data-name="路径 498" class="cls-1" d="M135.624,161.584h-1.238c0-.272-.417-.929-.929-.929s-.929.657-.929.929H131.29a2.167,2.167,0,1,1,4.334,0Zm8.918-4.679a.619.619,0,0,1-.512-.966l4.7-6.95a.619.619,0,0,1,1.025.694l-4.7,6.95A.619.619,0,0,1,144.541,156.906ZM122,160.407h-6.81a.634.634,0,0,1,0-1.268H122a.634.634,0,0,1,0,1.268Zm8.049-3.022a.617.617,0,0,1-.45-.194l-5.262-5.572a.619.619,0,1,1,.9-.85l5.263,5.572a.619.619,0,0,1-.45,1.044Zm0,0,6.044,17.578v-1.105c6.222,0,10.738-3.981,10.738-9.467h1.106a10.253,10.253,0,0,1-.951,4.4,9.843,9.843,0,0,1-2.581,3.342A12.828,12.828,0,0,1,136.1,174.964Zm-15.022-.114h-4.953a1.138,1.138,0,0,1-1.15-1.06l-.241-4.369a1.14,1.14,0,0,1,.31-.843,1.056,1.056,0,0,1,.772-.337h5.427l.105.357a11.5,11.5,0,0,0,.966,2.307l.067.124-.153,2.737A1.164,1.164,0,0,1,121.075,174.85Zm-5.262-5.614a.074.074,0,0,0-.05.026.145.145,0,0,0-.039.1l.241,4.369a.146.146,0,0,0,.156.12h4.953a.163.163,0,0,0,.156-.145l.138-2.457a12.484,12.484,0,0,1-.868-2.017h-4.689Z" transform="translate(-75.055)"/>
    <path id="路径_499" data-name="路径 499" class="cls-1" d="M74.189,309.64h-.5a2.317,2.317,0,0,0-.115-1.452,2.428,2.428,0,0,0-2.319-1.5,2.379,2.379,0,0,0-.187-.964,2.479,2.479,0,0,0-3.234-1.333,2.465,2.465,0,0,0-.831.564,2.487,2.487,0,0,0-2.725-.566,2.458,2.458,0,0,0-1.342,1.339l-.006.017a6.542,6.542,0,0,0-4.524-1.917,6.62,6.62,0,0,0-6.469,5.807H50.576l.085-1.12v-1.326a1.9,1.9,0,0,0-1.858-1.9H38.28a2.135,2.135,0,0,0-2.005,2.019v1.238L37.5,324.639a2,2,0,0,0,2.018,1.754h8.049a1.931,1.931,0,0,0,1.944-1.754l.2-2.832a15.1,15.1,0,0,0,11.395,4.685c8.61,0,14.781-5.714,14.781-13.606v-1.238A1.868,1.868,0,0,0,74.189,309.64Zm-10.114-3.426a1.257,1.257,0,0,1,2.283-.053.647.647,0,0,0,.636.4h0a.644.644,0,0,0,.632-.384,1.243,1.243,0,0,1,2.29.033,1.243,1.243,0,0,1-.008.963.687.687,0,0,0,.9.888,1.208,1.208,0,0,1,1.616.6,1.057,1.057,0,0,1-.054.98h-7.5a8.565,8.565,0,0,0-.757-2.406.373.373,0,0,0-.039-.115A1.127,1.127,0,0,1,64.075,306.214ZM58.4,305a5.411,5.411,0,0,1,5.223,4.644H53.179A5.411,5.411,0,0,1,58.4,305ZM48.276,324.581a.708.708,0,0,1-.709.634H39.519a.769.769,0,0,1-.768-.634l-1.208-16.052v-1.216a.856.856,0,0,1,.737-.751H48.805c.341,0,.509.41.509.751v1.216l.02,1.111H48.186a2.074,2.074,0,0,0-1.95,2.007v1.238a13.2,13.2,0,0,0,2.295,7.495Zm26.348-11.7c0,7.175-5.636,12.353-13.529,12.353a13.409,13.409,0,0,1-7.909-2.2h5.319v-1.268H51.528a8.509,8.509,0,0,1-2.483-3.079h6.382v-1.268H48.455a10.516,10.516,0,0,1-.793-3.079h4.46v-1.268H47.575s-.162-.092-.162-.2v-1.238a.88.88,0,0,1,.773-.739h26c.341,0,.435.4.435.739Zm0,0" transform="translate(0 -148.689)"/>
  </g>
</svg>
