<svg xmlns="http://www.w3.org/2000/svg" viewBox="0 0 27.32 27.32">
  <defs>
    <style>
      .cls-1 {
        fill: #fff;
        stroke: #cecfd0;
      }

      .cls-2 {
        fill: #cecfd0;
      }

      .cls-3 {
        stroke: none;
      }

      .cls-4 {
        fill: none;
      }
    </style>
  </defs>
  <g id="组_513" data-name="组 513" transform="translate(-873.078 92.638)">
    <g id="矩形_1571" data-name="矩形 1571" class="cls-1" transform="translate(873.078 -92.638)">
      <rect class="cls-3" width="27.32" height="27.32" rx="3"/>
      <rect class="cls-4" x="0.5" y="0.5" width="26.32" height="26.32" rx="2.5"/>
    </g>
    <path id="全屏显示" class="cls-2" d="M68.071,67.864l1.058-1.058a.192.192,0,0,0-.114-.327l-3.86-.456a.193.193,0,0,0-.215.215L65.4,70.1a.193.193,0,0,0,.327.114l1.052-1.052L70,72.377a.194.194,0,0,0,.272,0l1.022-1.018a.194.194,0,0,0,0-.272Zm8.5,4.513a.194.194,0,0,0,.272,0l3.221-3.22,1.052,1.052a.192.192,0,0,0,.327-.114L81.9,66.24a.193.193,0,0,0-.215-.215l-3.86.456a.193.193,0,0,0-.114.327l1.058,1.058-3.22,3.218a.194.194,0,0,0,0,.272l1.022,1.022Zm4.874,6.532a.193.193,0,0,0-.327-.114L80.06,79.85l-3.221-3.22a.194.194,0,0,0-.272,0l-1.022,1.018a.194.194,0,0,0,0,.272l3.221,3.221L77.709,82.2a.192.192,0,0,0,.114.327l3.86.456a.193.193,0,0,0,.215-.215ZM70.271,76.63a.194.194,0,0,0-.272,0l-3.221,3.22L65.725,78.8a.192.192,0,0,0-.327.114l-.456,3.856a.193.193,0,0,0,.215.215l3.86-.456a.193.193,0,0,0,.114-.327l-1.058-1.054,3.221-3.218a.194.194,0,0,0,0-.272L70.271,76.63Zm0,0" transform="translate(813.138 -153.661)"/>
  </g>
</svg>
