<svg xmlns="http://www.w3.org/2000/svg" viewBox="0 0 50.126 50.126">
  <defs>
    <style>
      .cls-1 {
        fill: #fff;
        stroke: #cecfd0;
      }

      .cls-2 {
        fill: #cecfd0;
      }

      .cls-3 {
        stroke: none;
      }

      .cls-4 {
        fill: none;
      }
    </style>
  </defs>
  <g id="组_514" data-name="组 514" transform="translate(-193.212 0.391)">
    <g id="矩形_1574" data-name="矩形 1574" class="cls-1" transform="translate(193.212 -0.392)">
      <rect class="cls-3" width="50.126" height="50.126" rx="5"/>
      <rect class="cls-4" x="0.5" y="0.5" width="49.126" height="49.126" rx="4.5"/>
    </g>
    <path id="全屏缩小" class="cls-2" d="M78.658,69.054a.406.406,0,0,0-.688-.238L75.757,71.03l-6.77-6.761a.4.4,0,0,0-.571,0l-2.147,2.138a.4.4,0,0,0,0,.571l6.77,6.77L70.817,75.97a.406.406,0,0,0,.238.688l8.112.959a.407.407,0,0,0,.45-.45l-.959-8.112Zm.513,18.9-8.116.959a.406.406,0,0,0-.238.688l2.222,2.222-6.77,6.761a.4.4,0,0,0,0,.571l2.147,2.143a.4.4,0,0,0,.571,0l6.77-6.766,2.214,2.214a.406.406,0,0,0,.688-.238l.959-8.1A.4.4,0,0,0,79.171,87.951ZM90.4,77.612l8.116-.959a.406.406,0,0,0,.238-.688l-2.222-2.218,6.77-6.766a.4.4,0,0,0,0-.571l-2.147-2.143a.4.4,0,0,0-.571,0L93.811,71.03,91.6,68.817a.405.405,0,0,0-.688.238l-.959,8.108A.408.408,0,0,0,90.4,77.612Zm6.132,14.2,2.222-2.222a.406.406,0,0,0-.238-.688L90.4,87.946a.407.407,0,0,0-.45.45l.959,8.112a.406.406,0,0,0,.688.238l2.214-2.214,6.77,6.766a.4.4,0,0,0,.571,0l2.147-2.143a.4.4,0,0,0,0-.571Zm0,0" transform="translate(133.061 -57.542)"/>
  </g>
</svg>
