<svg xmlns="http://www.w3.org/2000/svg" viewBox="0 0 18.299 13.373">
  <defs>
    <style>
      .cls-1 {
        fill: #43425d;
      }
    </style>
  </defs>
  <path id="健康卡" class="cls-1" d="M29.926,153.6H13.973a1.175,1.175,0,0,0-1.173,1.173V165.8a1.175,1.175,0,0,0,1.173,1.173H29.926A1.175,1.175,0,0,0,31.1,165.8V154.656A1.083,1.083,0,0,0,29.926,153.6Zm-16.54,2.346H26.407l-1.642,2.933H13.387Zm13.724,0h.938l-1.642,2.933h-.938Zm3.4,9.619a.761.761,0,0,1-.7.587H13.856c-.235,0-.469-.352-.469-.587v-6.1H30.513v6.1Zm0-6.686h-3.4l1.642-2.933h1.76Zm0-3.519H13.387v-.7a.43.43,0,0,1,.469-.469H29.809c.235,0,.7.117.7.469v.7Zm-16.54,6.686h5.865a.352.352,0,0,0,0-.7H13.973a.609.609,0,0,0-.235.469.252.252,0,0,0,.235.235Zm0,1.525h3.284a.352.352,0,1,0,0-.7H13.973a.375.375,0,0,0-.352.352Q13.8,163.571,13.973,163.571Z" transform="translate(-12.8 -153.6)"/>
</svg>
