<svg xmlns="http://www.w3.org/2000/svg" viewBox="0 0 15.637 13.192">
  <defs>
    <style>
      .cls-1 {
        fill: #43425d;
      }
    </style>
  </defs>
  <g id="会诊" transform="translate(0 0)">
    <path id="路径_408" data-name="路径 408" class="cls-1" d="M398.346,237.387a2.248,2.248,0,1,1-2.247-2.249,2.248,2.248,0,0,1,2.247,2.249Z" transform="translate(-388.236 -233.666)"/>
    <path id="路径_409" data-name="路径 409" class="cls-1" d="M309.576,498.085l-1.412,1.656-1.408-1.65a4.618,4.618,0,0,0-2.529,4.277,5.453,5.453,0,0,0,.062.786,5.2,5.2,0,0,0,7.771,0,5.52,5.52,0,0,0,.061-.786,4.614,4.614,0,0,0-2.546-4.284Z" transform="translate(-300.284 -491.708)"/>
    <path id="路径_410" data-name="路径 410" class="cls-1" d="M628.827,156.2a2.074,2.074,0,0,0-2,1.544,3.02,3.02,0,0,1,.929,2.178c0,.043,0,.085-.006.128a2.077,2.077,0,1,0,1.079-3.85Z" transform="translate(-616.866 -156.196)"/>
    <path id="路径_411" data-name="路径 411" class="cls-1" d="M179.022,159.918a3.014,3.014,0,0,1,.823-2.069,2.079,2.079,0,1,0-2.033,2.507,2.056,2.056,0,0,0,1.211-.4c0-.013,0-.027,0-.04Z" transform="translate(-174.185 -156.195)"/>
    <path id="路径_412" data-name="路径 412" class="cls-1" d="M632.021,399.445l-1.306,1.533-1.227-1.44a3.025,3.025,0,0,1-.754,1.232,5.434,5.434,0,0,1,2.62,4.8c0,.046,0,.094-.005.14a4.464,4.464,0,0,0,2.97-1.575,4.964,4.964,0,0,0,.057-.727,4.271,4.271,0,0,0-2.354-3.962Z" transform="translate(-618.738 -394.908)"/>
    <path id="路径_413" data-name="路径 413" class="cls-1" d="M95.983,405.566a5.447,5.447,0,0,1,2.588-4.781,3.014,3.014,0,0,1-.8-1.341h0l-1.307,1.533-1.3-1.527a4.273,4.273,0,0,0-2.34,3.956,4.954,4.954,0,0,0,.057.727,4.49,4.49,0,0,0,3.114,1.59c0-.052-.006-.1-.006-.156Z" transform="translate(-92.818 -394.906)"/>
  </g>
</svg>
