<svg xmlns="http://www.w3.org/2000/svg" viewBox="0 0 14.014 14.014">
  <defs>
    <style>
      .cls-1 {
        fill: #43425d;
      }
    </style>
  </defs>
  <g id="指标检测器" transform="translate(0 0)">
    <path id="路径_414" data-name="路径 414" class="cls-1" d="M610.32,512c.012,0,.024,0,.036,0H609.9v.021a3.126,3.126,0,0,0-.918.251l1.432,2.714,2.427,1.278a2.708,2.708,0,0,0,.409-1.427A2.913,2.913,0,0,0,610.32,512Z" transform="translate(-600.455 -504.993)"/>
    <path id="路径_415" data-name="路径 415" class="cls-1" d="M696.881,512h-.152c.051,0,.1.005.152.008Z" transform="translate(-686.827 -504.993)"/>
    <path id="路径_416" data-name="路径 416" class="cls-1" d="M438.332,434.22a4.11,4.11,0,0,0-3.212,6.678l.128.15a4.111,4.111,0,1,0,3.084-6.828Zm2.58,6.477-.431-.431a2.909,2.909,0,0,1-.453.408l.435.435a3.482,3.482,0,0,1-1.978.719v-.609c-.051,0-.1.008-.152.008a2.9,2.9,0,0,1-.457-.04v.616a3.486,3.486,0,0,1-1.907-.89l.431-.431a2.907,2.907,0,0,1-.408-.453l-.435.435a3.481,3.481,0,0,1-.693-1.674h.616a2.9,2.9,0,0,1-.039-.457c0-.051.005-.1.008-.152h-.609a3.482,3.482,0,0,1,.719-1.978l.435.435a2.907,2.907,0,0,1,.408-.453l-.431-.431a3.5,3.5,0,0,1,4.944,4.944Z" transform="translate(-428.431 -428.431)"/>
    <path id="路径_417" data-name="路径 417" class="cls-1" d="M69.332,76.338h.735a14.857,14.857,0,0,1-.125-1.523H65.676a.3.3,0,0,1-.3-.3V65.676a.3.3,0,0,1,.3-.3H76.948a.3.3,0,0,1,.3.3v5.345a4.734,4.734,0,0,1,.609.48v-6.13a.609.609,0,0,0-.609-.609H65.371a.609.609,0,0,0-.609.609v9.444a.609.609,0,0,0,.609.609h3.96Z" transform="translate(-64.762 -64.762)"/>
    <path id="路径_418" data-name="路径 418" class="cls-1" d="M220.629,842.566h0a.5.5,0,0,0,0,.914h3.351l-.609-.914Z" transform="translate(-217.887 -830.38)"/>
    <path id="路径_419" data-name="路径 419" class="cls-1" d="M149.092,201.555h-.914l-1.65,3.535-1.092-2.621-.281.281-.016-.019-2.133,1.828.595.694,1.561-1.338.884,2.209h.914l1.752-3.753,1.253,1.918.023-.021.019.029,2.779-2.743-.683-.607-1.995,2.029Z" transform="translate(-141.78 -198.813)"/>
  </g>
</svg>
