<svg id="诊断" xmlns="http://www.w3.org/2000/svg" viewBox="0 0 15.084 16.224">
  <defs>
    <style>
      .cls-1 {
        fill: #45484c;
      }

      .cls-2 {
        fill: #43425d;
      }
    </style>
  </defs>
  <path id="路径_426" data-name="路径 426" class="cls-1" d="M107.534,127.9a.544.544,0,0,0,0,1.088,1.77,1.77,0,0,1,1.764,1.764v8.091h-1.289a1.687,1.687,0,0,0-1.682,1.682V141.9H98.15a1.77,1.77,0,0,1-1.764-1.764v-9.386a1.77,1.77,0,0,1,1.764-1.764.544.544,0,0,0,0-1.088,2.853,2.853,0,0,0-2.85,2.85v9.384a2.853,2.853,0,0,0,2.85,2.85h9.384a2.853,2.853,0,0,0,2.85-2.85v-9.382A2.852,2.852,0,0,0,107.534,127.9Zm1.246,13.479a1.752,1.752,0,0,1-1.246.519h-.589l2.351-2.185v.422A1.742,1.742,0,0,1,108.779,141.381Z" transform="translate(-95.3 -126.76)"/>
  <path id="路径_427" data-name="路径 427" class="cls-1" d="M320.449,67.3h4.665a1.149,1.149,0,1,0,0-2.3h-4.665a1.149,1.149,0,1,0,0,2.3Zm0-1.211h4.665a.062.062,0,1,1,0,.123h-4.665a.065.065,0,0,1-.062-.062A.066.066,0,0,1,320.449,66.088Z" transform="translate(-315.239 -65)"/>
  <path id="路径_428" data-name="路径 428" class="cls-2" d="M297.183,301.549h-.6a.544.544,0,1,0,0,1.088h.6a.544.544,0,0,0,0-1.088Zm-2.333,0h-.966v-.925a.544.544,0,0,0-1.088,0v.925h-2.951a.544.544,0,0,0,0,1.088H292.8v3.285a.544.544,0,0,0,1.088,0v-3.285h.966a.544.544,0,0,0,0-1.088Zm-1.51-2.083a.543.543,0,0,0,.544-.544v-.479a.544.544,0,0,0-1.088,0v.479A.543.543,0,0,0,293.339,299.466Z" transform="translate(-285.783 -293.678)"/>
</svg>
