<svg xmlns="http://www.w3.org/2000/svg" viewBox="0 0 15.381 16.914">
  <defs>
    <style>
      .cls-1 {
        fill: #43425d;
      }
    </style>
  </defs>
  <path id="体检管理" class="cls-1" d="M58.825,23.291h0v-.684a2.541,2.541,0,0,0-2.547-2.528h-.164a2.541,2.541,0,0,0-2.548,2.528v1.8a1.393,1.393,0,0,1-1.4,1.386H52a1.393,1.393,0,0,1-1.4-1.386V21.039h.476v-.509c2.872-.264,3.461-3.749,3.893-6.308l.1-.591a3.194,3.194,0,0,0-.444-2.65,1.955,1.955,0,0,0-1.375-.714h-.888a.808.808,0,0,0-1.394.551h0a.806.806,0,0,0,1.354.589h.894a.818.818,0,0,1,.515.293,2.2,2.2,0,0,1,.205,1.735l-.1.6c-.484,2.867-1,5.094-2.759,5.347V18.92H48.923v.474c-1.834-.183-2.363-2.438-2.856-5.359q-.05-.3-.1-.6a2.241,2.241,0,0,1,.194-1.72.821.821,0,0,1,.528-.307h.893a.8.8,0,1,0-.04-1.142h-.889a1.956,1.956,0,0,0-1.374.714,3.194,3.194,0,0,0-.445,2.65l.1.592c.437,2.587,1.035,6.12,3.991,6.314v.5h.531V24.4A2.541,2.541,0,0,0,52,26.93h.164A2.541,2.541,0,0,0,54.716,24.4v-1.8a1.393,1.393,0,0,1,1.4-1.386h.165a1.393,1.393,0,0,1,1.4,1.386V23.3a1.861,1.861,0,1,0,1.152-.011Zm-.614,2.685a.9.9,0,0,1-.723-.369.588.588,0,0,1-.072-.082.605.605,0,0,1-.1-.463.9.9,0,1,1,.9.914Z" transform="translate(-44.746 -10.016)"/>
</svg>
