<svg xmlns="http://www.w3.org/2000/svg" viewBox="0 0 17.004 16.981">
  <defs>
    <style>
      .cls-1 {
        fill: #43425d;
      }
    </style>
  </defs>
  <path id="栏目配置" class="cls-1" d="M16.877,9.409l-.726.273a.268.268,0,0,0-.181.207c0,.074.065.312.162.358l.7.331a.2.2,0,0,1,.1.263L16.2,12.458a.2.2,0,0,1-.257.1l-.7-.331c-.1-.045-.316.057-.374.108a.273.273,0,0,0-.035.275l.266.742a.2.2,0,0,1-.114.255l-1.635.616A.192.192,0,0,1,13.1,14.1l-.268-.738c-.036-.1-.264-.188-.337-.192a.27.27,0,0,0-.215.171l-.323.715a.193.193,0,0,1-.258.1l-1.583-.746a.2.2,0,0,1-.094-.263l.323-.714c.045-.1-.055-.324-.105-.38a.26.26,0,0,0-.269-.036l-.726.273A.194.194,0,0,1,9,12.169L8.4,10.5a.2.2,0,0,1,.114-.255l.725-.272c.1-.038.183-.272.187-.348a.273.273,0,0,0-.166-.22l-.7-.329a.2.2,0,0,1-.1-.263l.73-1.618a.192.192,0,0,1,.257-.1l.7.329c.1.045.316-.058.371-.108a.275.275,0,0,0,.037-.276l-.268-.74a.2.2,0,0,1,.114-.255l1.635-.616a.2.2,0,0,1,.25.117l.266.742c.037.1.265.187.338.191a.266.266,0,0,0,.216-.171l.323-.715a.194.194,0,0,1,.257-.1l1.582.746a.2.2,0,0,1,.1.263l-.324.715c-.043.1.057.323.105.382a.26.26,0,0,0,.271.036l.723-.273a.194.194,0,0,1,.249.118l.6,1.67A.2.2,0,0,1,16.877,9.409ZM14.51,9.139a1.923,1.923,0,0,0-2.486-1.171,1.993,1.993,0,0,0-1.148,2.542,1.927,1.927,0,0,0,2.488,1.173A1.994,1.994,0,0,0,14.51,9.139ZM7.638,14.051H2.373v-.607H7.638ZM2.373,5.357H7.638v.607H2.373Zm4.055,6H2.373v-.607H6.428Zm-4.055-3.3H6.428v.607H2.373ZM13.447,2.83A2,2,0,0,0,11.469.808H7.628A1.991,1.991,0,0,0,5.691,2.426h4.2A2.79,2.79,0,0,1,12.6,4.686a4.991,4.991,0,0,0-.774.164A1.993,1.993,0,0,0,9.889,3.234H2.769A2,2,0,0,0,.791,5.256v8.895a2,2,0,0,0,1.978,2.022h7.12a1.982,1.982,0,0,0,1.827-1.252,4.935,4.935,0,0,0,.77.179,2.772,2.772,0,0,1-2.6,1.882H2.769A2.8,2.8,0,0,1,0,14.151V5.256a2.8,2.8,0,0,1,2.769-2.83H4.9A2.787,2.787,0,0,1,7.628,0h3.841a2.8,2.8,0,0,1,2.769,2.83V4.758a5.011,5.011,0,0,0-.791-.1Z" transform="translate(0 0)"/>
</svg>
