<svg xmlns="http://www.w3.org/2000/svg" viewBox="0 0 12.912 12.912">
  <defs>
    <style>
      .cls-1 {
        fill: #43425d;
      }
    </style>
  </defs>
  <g id="健康评估" transform="translate(0 0)">
    <path id="路径_420" data-name="路径 420" class="cls-1" d="M53.017,44.144H46.424a.34.34,0,0,1-.344-.344V37.213a5.986,5.986,0,0,1,5.981-5.981h6.586a.34.34,0,0,1,.344.344v6.586a5.974,5.974,0,0,1-5.975,5.981Zm-6.25-.688h6.25A5.282,5.282,0,0,0,58.3,38.162V31.92H52.061a5.3,5.3,0,0,0-5.294,5.294Z" transform="translate(-46.08 -31.232)"/>
    <path id="路径_421" data-name="路径 421" class="cls-1" d="M403.444,232.734a.34.34,0,0,1-.344-.344V231.6h-2.028v.791a.344.344,0,0,1-.688,0v-1.134a.34.34,0,0,1,.344-.344h2.716a.34.34,0,0,1,.344.344v1.134A.34.34,0,0,1,403.444,232.734Z" transform="translate(-395.626 -228.231)"/>
    <path id="路径_422" data-name="路径 422" class="cls-1" d="M230.558,334.242h-7.494a.34.34,0,0,1-.344-.344v-5.363a.34.34,0,0,1,.344-.344h7.494a.34.34,0,0,1,.344.344V333.9A.34.34,0,0,1,230.558,334.242Zm-7.15-.688h6.807V328.88h-6.807Z" transform="translate(-220.348 -324.204)"/>
    <path id="路径_423" data-name="路径 423" class="cls-1" d="M419.893,528.56h-2.269a.344.344,0,1,1,0-.688h2.269a.344.344,0,1,1,0,.688Z" transform="translate(-412.295 -521.203)"/>
    <path id="路径_424" data-name="路径 424" class="cls-1" d="M502.1,446.348a.34.34,0,0,1-.344-.344v-2.269a.344.344,0,0,1,.688,0V446A.34.34,0,0,1,502.1,446.348Z" transform="translate(-495.641 -437.857)"/>
  </g>
</svg>
