<svg xmlns="http://www.w3.org/2000/svg" viewBox="0 0 16.306 20.943">
  <defs>
    <style>
      .cls-1 {
        fill: #43425d;
      }
    </style>
  </defs>
  <g id="干预随访历史" transform="translate(0 0)">
    <path id="路径_429" data-name="路径 429" class="cls-1" d="M135.067,90.338H119.83a.529.529,0,0,1-.534-.534V71.19a.529.529,0,0,1,.534-.534h4.424a.534.534,0,1,1,0,1.069h-3.889V89.27h14.169V71.725h-3.718a.534.534,0,1,1,0-1.069h4.253a.529.529,0,0,1,.534.534V89.8A.529.529,0,0,1,135.067,90.338Z" transform="translate(-119.296 -69.395)"/>
    <path id="路径_430" data-name="路径 430" class="cls-1" d="M260.889,13.948h-6.2a.529.529,0,0,1-.534-.534V10.774a.529.529,0,0,1,.534-.534h6.2a.529.529,0,0,1,.534.534v2.639A.529.529,0,0,1,260.889,13.948Zm-5.663-1.069h5.129V11.309h-5.129Zm7.512,14.788H252.95a.534.534,0,0,1,0-1.069h9.788a.534.534,0,1,1,0,1.069Zm-4.669-2.361a5.094,5.094,0,0,1-4.819-3.548.537.537,0,0,1,1.026-.321,3.976,3.976,0,1,0,.577-3.5.535.535,0,0,1-.866-.63,5.039,5.039,0,1,1,4.082,8Z" transform="translate(-249.638 -10.24)"/>
    <path id="路径_431" data-name="路径 431" class="cls-1" d="M265.238,469.533A.529.529,0,0,1,264.7,469v-2.233a.529.529,0,0,1,.534-.534h2.233a.534.534,0,1,1,0,1.068h-1.7V469A.529.529,0,0,1,265.238,469.533Zm6.411-3.569H270.2a.534.534,0,0,1,0-1.068h1.453a.534.534,0,1,1,0,1.068Z" transform="translate(-261.669 -455.408)"/>
    <path id="路径_432" data-name="路径 432" class="cls-1" d="M487.446,355.174a.529.529,0,0,1-.534-.534v-2.361a.534.534,0,0,1,1.069,0v2.361A.529.529,0,0,1,487.446,355.174Z" transform="translate(-479.24 -344.617)"/>
  </g>
</svg>
