<svg xmlns="http://www.w3.org/2000/svg" viewBox="0 0 17.004 17.559">
  <defs>
    <style>
      .cls-1 {
        fill: #43425d;
      }
    </style>
  </defs>
  <path id="客服" class="cls-1" d="M87.416,79.208A2.191,2.191,0,0,0,89.5,77.69a.125.125,0,0,0-.067-.153.126.126,0,0,0-.16.051c0,.005-.338.546-1.642.722a4.268,4.268,0,0,1-.565.04A2.122,2.122,0,0,1,85.742,78a.125.125,0,0,0-.189.16A2.206,2.206,0,0,0,87.416,79.208Zm7.01-8.08-.033,0a7.358,7.358,0,0,0-14.426.273,1.384,1.384,0,0,0-1.133,1.365v2.738A1.382,1.382,0,0,0,80.208,76.9a1.359,1.359,0,0,0,1.058-.513,6.39,6.39,0,0,0,3.412,3.589.733.733,0,0,1,.069-.112c.025-.032.052-.058.076-.058a.115.115,0,0,1,.066.023,6.189,6.189,0,0,1-1.956-3.593A1.673,1.673,0,0,1,84.192,74.4c1.193-.222,2.381-.475,3.574-.693a2.06,2.06,0,0,0,1.594-1.247,3.219,3.219,0,0,0,.231-.962.148.148,0,0,1,.144-.124.15.15,0,0,1,.119.061l.033-.02a8.5,8.5,0,0,1,1.537,3.79c.154,1.823.068,3.071-1.327,4.349l-.006.005a.114.114,0,0,0-.031.078.113.113,0,0,0,.051.093l.035.016a.129.129,0,0,0,.028.005.1.1,0,0,0,.026-.005l.058-.033a6.381,6.381,0,0,0,2.994-3.637,1.411,1.411,0,0,0,.888.593c-.591,2.687-2.987,4.368-5.956,4.623a1.215,1.215,0,0,0-1.13-.755,1.188,1.188,0,1,0,1.153,1.549c3.436-.279,6.191-2.322,6.766-5.5a1.4,1.4,0,0,0,.865-1.293V72.53A1.407,1.407,0,0,0,94.426,71.128Zm-1.268.8a6.335,6.335,0,0,0-11.89-.03,1.5,1.5,0,0,0-.15-.15A6.174,6.174,0,0,1,93.3,71.7,1.377,1.377,0,0,0,93.158,71.923Zm-8.479,8.048h0S84.678,79.972,84.679,79.971Z" transform="translate(-78.833 -65.355)"/>
</svg>
