<svg xmlns="http://www.w3.org/2000/svg" viewBox="0 0 17.157 22.24">
  <defs>
    <style>
      .cls-1 {
        fill: #3b86ff;
      }
    </style>
  </defs>
  <g id="疑难病例" transform="translate(-215.197 -98.528)">
    <path id="路径_433" data-name="路径 433" class="cls-1" d="M231.256,101.555h-3.363v-1.51H225.7a1.978,1.978,0,0,0-3.847,0h-2.194v1.51h-3.5a1.061,1.061,0,0,0-.961,1.1V119.67a1.181,1.181,0,0,0,1.1,1.1h14.961a1.181,1.181,0,0,0,1.1-1.1V102.653A1.181,1.181,0,0,0,231.256,101.555Zm-7.48-2.168a1.12,1.12,0,1,1-1.12,1.12A1.121,1.121,0,0,1,223.776,99.387Zm-3.157,1.756H221.9a1.978,1.978,0,0,0,3.746,0h1.284V103.2h-6.314v-2.059Zm10.5,17.567a.886.886,0,0,1-.823.824H217.119a.886.886,0,0,1-.824-.824v-15.1a.886.886,0,0,1,.824-.824h2.539v1.373h8.235v-1.51h2.4a.886.886,0,0,1,.823.824Z"/>
    <path id="路径_434" data-name="路径 434" class="cls-1" d="M405.975,331.259h2v-2.09h2.09v-2h-2.09v-2.09h-2v2.09h-2.09v2h2.09Z" transform="translate(-183.197 -219.963)"/>
    <path id="路径_435" data-name="路径 435" class="cls-1" d="M373.971,594.013H366.7a.59.59,0,0,0-.549.549v.137a.59.59,0,0,0,.549.549h7.137a.7.7,0,0,0,.686-.549v-.137A.59.59,0,0,0,373.971,594.013Z" transform="translate(-146.558 -481.068)"/>
    <path id="路径_436" data-name="路径 436" class="cls-1" d="M373.971,660.053H366.7a.59.59,0,0,0-.549.549v.137a.59.59,0,0,0,.549.549h7.137a.7.7,0,0,0,.686-.549V660.6A.59.59,0,0,0,373.971,660.053Z" transform="translate(-146.558 -545.187)"/>
    <path id="路径_437" data-name="路径 437" class="cls-1" d="M373.971,730.81H366.7a.59.59,0,0,0-.549.549v.137c0,.275.275.412.549.412h7.137a.755.755,0,0,0,.686-.412v-.137A.59.59,0,0,0,373.971,730.81Z" transform="translate(-146.558 -613.885)"/>
  </g>
</svg>
