<svg xmlns="http://www.w3.org/2000/svg" viewBox="0 0 22.676 22.67">
  <defs>
    <style>
      .cls-1 {
        fill: #fff;
      }
    </style>
  </defs>
  <g id="首页_1_" data-name="首页 (1)" transform="translate(0 0)">
    <path id="路径_473" data-name="路径 473" class="cls-1" d="M1.981,7.805C1.981,7.827.272,9.36.272,9.36A.791.791,0,0,0,1.31,10.553L11.335,1.835l10.028,8.718A.791.791,0,1,0,22.4,9.36h0L20.433,7.647V5.431a.791.791,0,1,0-1.583,0v.842l-7-6.081h0A.79.79,0,0,0,11.69.081h0c-.009-.006-.022-.009-.032-.016a0,0,0,0,1,0,0c-.009,0-.019-.009-.028-.013s0,0-.006,0L11.595.037s-.006,0-.009,0a.059.059,0,0,0-.022-.006l-.013,0c-.006,0-.016,0-.022-.006a.137.137,0,0,0-.016,0,.07.07,0,0,0-.025,0l-.013,0c-.009,0-.019,0-.028,0h-.009c-.013,0-.022,0-.035,0h0a.776.776,0,0,0-.367.06,0,0,0,0,0,0,0A.1.1,0,0,0,11,.078s-.006,0-.013.006l-.019.009L10.952.1s-.009,0-.013.006l-.022.013a.011.011,0,0,0-.006,0,.176.176,0,0,0-.025.019l0,0a.174.174,0,0,0-.028.022l0,0A.181.181,0,0,0,10.826.2h0L3.564,6.5Z" transform="translate(0 0)"/>
    <path id="路径_474" data-name="路径 474" class="cls-1" d="M113.015,479.382a.792.792,0,0,0-.791.791v7.857a1.709,1.709,0,0,1-1.488,1.83H98.422a1.709,1.709,0,0,1-1.488-1.83v-7.857a.791.791,0,0,0-1.583,0v7.857a3.256,3.256,0,0,0,3.071,3.409h12.314a3.256,3.256,0,0,0,3.071-3.409v-7.857a.792.792,0,0,0-.791-.791Z" transform="translate(-93.24 -468.769)"/>
  </g>
</svg>
