<svg xmlns="http://www.w3.org/2000/svg" viewBox="0 0 21.685 22.67">
  <defs>
    <style>
      .cls-1 {
        fill: #fff;
      }
    </style>
  </defs>
  <path id="退出" class="cls-1" d="M100.075,74.71H91.209a.739.739,0,1,1,0-1.479h9.06l-1.884-1.884A.739.739,0,0,1,99.43,70.3l2.756,2.756a.836.836,0,0,1,0,1.631L99.43,77.445A.739.739,0,0,1,98.385,76.4Zm-2.211-7.885V64.361a1.972,1.972,0,0,0-1.972-1.972H83.075A1.972,1.972,0,0,0,81.1,64.361V83.087a1.971,1.971,0,0,0,1.972,1.972H95.892a1.973,1.973,0,0,0,1.972-1.972V80.624a.74.74,0,0,0-1.479,0V82.6a.986.986,0,0,1-.981.985H83.563a.983.983,0,0,1-.982-.985V64.851a.986.986,0,0,1,.982-.984H95.4a.981.981,0,0,1,.981.984v1.973a.74.74,0,0,0,1.479,0Z" transform="translate(-81.103 -62.389)"/>
</svg>
